<!-- icon666.com - MILLIONS vector ICONS FREE --><svg id="Layer_1" viewBox="0 0 32 32" xmlns="http://www.w3.org/2000/svg" data-name="Layer 1"><path d="m29 9v17a2 2 0 0 1 -2 2h-22a2 2 0 0 1 -2-2v-20a2 2 0 0 1 2-2h7l3 3h12a2 2 0 0 1 2 2z" fill="#81d4fa"></path><path d="m5 4h1a0 0 0 0 1 0 0v24a0 0 0 0 1 0 0h-1a2 2 0 0 1 -2-2v-20a2 2 0 0 1 2-2z" fill="#b3e5fc"></path><path d="m15 28h-3v-24l3 3z" fill="#b3e5fc"></path><path d="m26 7h1a2 2 0 0 1 2 2v17a2 2 0 0 1 -2 2h-1a0 0 0 0 1 0 0v-21a0 0 0 0 1 0 0z" fill="#4fc3f7"></path><rect fill="#b3e5fc" height="16" rx="2" width="26" x="3" y="12"></rect><path d="m26 12h1a2 2 0 0 1 2 2v12a2 2 0 0 1 -2 2h-1a0 0 0 0 1 0 0v-16a0 0 0 0 1 0 0z" fill="#81d4fa"></path><path d="m5 12h1a0 0 0 0 1 0 0v16a0 0 0 0 1 0 0h-1a2 2 0 0 1 -2-2v-12a2 2 0 0 1 2-2z" fill="#e1f5fe"></path><path d="m12 12h3v16h-3z" fill="#e1f5fe"></path><g fill="#1e88e5"><path d="m27 6h-11.5859l-2.7071-2.707a.9993.9993 0 0 0 -.707-.293h-7a3.0033 3.0033 0 0 0 -3 3v20a3.0033 3.0033 0 0 0 3 3h22a3.0033 3.0033 0 0 0 3-3v-17a3.0033 3.0033 0 0 0 -3-3zm-22-1h6.5859l2.7071 2.707a.9993.9993 0 0 0 .707.293h12a1.0009 1.0009 0 0 1 1 1v2.1843a2.9635 2.9635 0 0 0 -1-.1843h-22a2.9635 2.9635 0 0 0 -1 .1843v-5.1843a1.0009 1.0009 0 0 1 1-1zm23 21a1.0006 1.0006 0 0 1 -1 1h-22a1.0006 1.0006 0 0 1 -1-1v-12a1.0009 1.0009 0 0 1 1-1h22a1.0009 1.0009 0 0 1 1 1z"></path><path d="m11.207 16.293a.9994.9994 0 0 0 -1.414 0l-3 3a.9994.9994 0 0 0 0 1.414l3 3a1 1 0 0 0 1.414-1.414l-2.2929-2.293 2.2929-2.293a.9994.9994 0 0 0 0-1.414z"></path><path d="m22.207 16.293a1 1 0 0 0 -1.414 1.414l2.2929 2.293-2.2929 2.293a1 1 0 1 0 1.414 1.414l3-3a.9994.9994 0 0 0 0-1.414z"></path><path d="m18.4473 15.1055a1.0006 1.0006 0 0 0 -1.3418.4472l-4 8a1 1 0 0 0 1.789.8946l4-8a1 1 0 0 0 -.4472-1.3418z"></path></g></svg>